<svg width="43" height="43" viewBox="0 0 43 43" fill="none" xmlns="http://www.w3.org/2000/svg">
<path d="M40.25 19.775V21.5C40.2477 25.5433 38.9384 29.4775 36.5175 32.7159C34.0966 35.9543 30.6937 38.3234 26.8163 39.4698C22.9389 40.6162 18.7949 40.4786 15.0021 39.0773C11.2094 37.6761 7.97123 35.0864 5.77055 31.6945C3.56987 28.3026 2.52461 24.2901 2.79064 20.2556C3.05668 16.221 4.61976 12.3806 7.24677 9.307C9.87379 6.2334 13.424 4.09133 17.3679 3.20026C21.3117 2.3092 25.438 2.71687 29.1313 4.36249" stroke="url(#paint0_linear_752_102)" stroke-width="3.75" stroke-linecap="round" stroke-linejoin="round"/>
<path d="M40.25 6.5L21.5 25.2688L15.875 19.6438" stroke="url(#paint1_linear_752_102)" stroke-width="3.75" stroke-linecap="round" stroke-linejoin="round"/>
<defs>
<linearGradient id="paint0_linear_752_102" x1="21.5" y1="2.73926" x2="21.5" y2="40.2393" gradientUnits="userSpaceOnUse">
<stop offset="0.453125" stop-color="#906AA2"/>
<stop offset="1" stop-color="#EB578D"/>
</linearGradient>
<linearGradient id="paint1_linear_752_102" x1="28.0625" y1="6.5" x2="28.0625" y2="25.2688" gradientUnits="userSpaceOnUse">
<stop offset="0.453125" stop-color="#906AA2"/>
<stop offset="1" stop-color="#EB578D"/>
</linearGradient>
</defs>
</svg>



