 <svg width="88" height="120" viewBox="0 0 88 120" fill="none" xmlns="http://www.w3.org/2000/svg">
<path d="M36.6 37.01C36.81 36.73 37.51 36.87 38.07 37.5C38.63 38.06 38.91 38.83 38.7 39.11C38.7 39.18 33.59 46.25 28.13 54.44H45.98C46.47 54.44 47.24 55 47.59 55.63C48.01 56.33 47.94 56.89 47.45 56.89H26.52C25.05 59.13 23.58 61.44 22.18 63.68V63.75C22.18 64.03 22.04 64.17 21.9 64.17C17.63 71.1 15.32 75.09 16.09 76.49C17.35 78.87 31.56 67.53 31.56 67.46C31.84 67.25 32.26 67.11 32.82 67.74C33.38 68.37 32.96 68.72 32.68 68.93C32.61 69 16.72 84.68 13.29 78.38C12.24 76.42 15.46 69.7 19.94 62.28C19.87 62.28 20.36 61.51 20.36 61.51C20.5 56.19 2.58 56.89 2.58 56.89C2.09 56.89 1.32 56.33 0.969999 55.63C0.549999 55 0.619999 54.44 1.11 54.44H24.77C30.65 45.27 36.53 37.08 36.6 37.01ZM21.13 60.25C21.83 59.13 22.53 58.01 23.23 56.89L14.48 56.54C16.58 57.38 20.01 58.78 21.13 60.25ZM33.8038 64.94C34.0838 64.73 34.7838 65.01 35.3438 65.64C35.9038 66.27 36.0438 66.97 35.7638 67.25C35.5538 67.39 35.3438 67.53 35.2038 67.67C33.7338 69 32.5438 71.17 31.7738 73.34C31.2138 75.16 30.9338 76.84 31.2838 77.54C31.6338 77.68 32.0538 77.68 32.6138 77.54C33.2438 77.33 34.0138 76.91 34.7138 76.21C35.6938 75.37 36.6038 74.11 37.4438 72.5C37.9338 71.59 38.2838 70.61 38.5638 69.63C37.3038 68.58 36.3938 67.32 35.8338 66.06C35.2738 64.8 35.0638 63.54 35.1338 62.63C35.2738 61.65 35.6938 60.95 36.5338 60.81C37.1638 60.74 37.7238 60.88 38.2838 61.16C39.1938 61.65 39.9638 62.49 40.4538 63.54C40.8738 64.31 41.0838 65.15 41.2238 66.06C41.3638 66.97 41.3638 68.02 41.2238 69.07C42.7638 69.35 45.0738 69.63 47.5238 68.23C47.8738 68.02 48.2238 67.74 48.7838 68.37C49.2738 69 49.2038 69.49 48.8538 69.7C45.5638 71.52 43.1138 71.8 40.9438 71.03C40.6638 72.22 40.2438 73.48 39.6138 74.53C38.7738 76.14 37.7938 77.54 36.7438 78.45C35.9038 79.15 35.1338 79.71 34.3638 79.92C33.4538 80.2 32.5438 80.13 31.6338 79.64C31.1438 79.36 30.6538 79.01 30.2338 78.52C30.0938 78.38 29.9538 78.24 29.8138 78.1C28.6938 76.49 28.7638 73.9 29.5338 71.45C30.3038 69.14 31.6338 66.83 33.1738 65.43C33.3838 65.29 33.5938 65.08 33.8038 64.94ZM38.9138 67.95C39.0538 66.83 39.0538 65.71 38.9138 64.8C38.8438 64.17 38.7038 63.61 38.5638 63.26C38.4938 63.26 38.6338 63.26 38.6338 63.26C38.5638 63.19 38.3538 63.19 38.1438 63.26C37.7238 63.26 37.5138 63.68 37.4438 64.31C37.3738 64.94 37.5138 65.71 37.8638 66.48C38.0738 67.04 38.4238 67.53 38.9138 67.95ZM57.915 71.31C57.845 71.66 57.425 71.73 56.935 71.45L56.865 71.59C54.345 73.76 52.105 75.51 50.355 76.63C47.975 78.1 43.985 78.45 44.195 74.46C44.265 73.41 44.755 72.08 45.525 70.75C46.925 68.44 49.935 64.59 52.875 64.73C55.605 64.66 56.445 66.06 57.145 67.11C59.735 64.66 62.395 61.79 64.915 58.78C70.655 51.92 74.575 46.25 76.465 43.31L77.935 41.07C78.145 40.72 78.775 40.86 79.405 41.49C79.965 42.05 80.315 42.75 80.105 43.17C80.105 43.17 79.545 44.08 78.425 45.76C71.565 56.54 45.595 97.49 46.575 99.8C46.855 100.5 46.575 100.85 46.015 100.71C45.455 100.57 44.755 99.94 44.545 99.24C43.705 97.28 53.015 81.32 61.975 66.55C60.645 67.95 59.315 69.28 57.985 70.47C57.985 70.96 57.915 71.24 57.915 71.31ZM55.605 68.58C55.465 68.09 55.115 67.53 54.205 67.53C51.685 67.39 48.885 70.82 47.695 72.78C47.135 73.76 46.715 74.67 46.575 75.37C46.995 75.16 47.625 74.81 48.395 74.32C50.145 73.27 52.385 71.52 54.835 69.35L55.605 68.58ZM71.7433 64.94C72.0233 64.73 72.7233 65.01 73.2833 65.64C73.8433 66.27 73.9833 66.97 73.7033 67.25C73.4933 67.39 73.2833 67.53 73.1433 67.67C71.6733 69 70.4833 71.17 69.7133 73.34C69.1533 75.16 68.8733 76.84 69.2233 77.54C69.5733 77.68 69.9933 77.68 70.5533 77.54C71.1833 77.33 71.9533 76.91 72.6533 76.21C73.6333 75.37 74.5433 74.11 75.3833 72.5C75.8733 71.59 76.2233 70.61 76.5033 69.63C75.2433 68.58 74.3333 67.32 73.7733 66.06C73.2133 64.8 73.0033 63.54 73.0733 62.63C73.2133 61.65 73.6333 60.95 74.4733 60.81C75.1033 60.74 75.6633 60.88 76.2233 61.16C77.1333 61.65 77.9033 62.49 78.3933 63.54C78.8133 64.31 79.0233 65.15 79.1633 66.06C79.3033 66.97 79.3033 68.02 79.1633 69.07C80.7033 69.35 83.0133 69.63 85.4633 68.23C85.8133 68.02 86.1633 67.74 86.7233 68.37C87.2133 69 87.1433 69.49 86.7933 69.7C83.5033 71.52 81.0533 71.8 78.8833 71.03C78.6033 72.22 78.1833 73.48 77.5533 74.53C76.7133 76.14 75.7333 77.54 74.6833 78.45C73.8433 79.15 73.0733 79.71 72.3033 79.92C71.3933 80.2 70.4833 80.13 69.5733 79.64C69.0833 79.36 68.5933 79.01 68.1733 78.52C68.0333 78.38 67.8933 78.24 67.7533 78.1C66.6333 76.49 66.7033 73.9 67.4733 71.45C68.2433 69.14 69.5733 66.83 71.1133 65.43C71.3233 65.29 71.5333 65.08 71.7433 64.94ZM76.8533 67.95C76.9933 66.83 76.9933 65.71 76.8533 64.8C76.7833 64.17 76.6433 63.61 76.5033 63.26C76.4333 63.26 76.5733 63.26 76.5733 63.26C76.5033 63.19 76.2933 63.19 76.0833 63.26C75.6633 63.26 75.4533 63.68 75.3833 64.31C75.3133 64.94 75.4533 65.71 75.8033 66.48C76.0133 67.04 76.3633 67.53 76.8533 67.95Z" fill="url(#paint0_linear_43_109)"/>
<defs>
<linearGradient id="paint0_linear_43_109" x1="51.5" y1="0" x2="51.5" y2="120" gradientUnits="userSpaceOnUse">
<stop offset="0.161458" stop-color="#8441A4"/>
<stop offset="0.515625" stop-color="#B84B9D"/>
<stop offset="1" stop-color="#FF5894"/>
</linearGradient>
</defs>
</svg>
